<?xml version="1.0" encoding="UTF-8"?>
<!DOCTYPE svg PUBLIC "-//W3C//DTD SVG 1.1//EN" "http://www.w3.org/Graphics/SVG/1.1/DTD/svg11.dtd">
<svg xmlns="http://www.w3.org/2000/svg" version="1.1" width="500px" height="472px" style="shape-rendering:geometricPrecision; text-rendering:geometricPrecision; image-rendering:optimizeQuality; fill-rule:evenodd; clip-rule:evenodd" xmlns:xlink="http://www.w3.org/1999/xlink">
<g><path style="opacity:1" fill="#171717" d="M -0.5,-0.5 C 166.167,-0.5 332.833,-0.5 499.5,-0.5C 499.5,156.833 499.5,314.167 499.5,471.5C 332.833,471.5 166.167,471.5 -0.5,471.5C -0.5,314.167 -0.5,156.833 -0.5,-0.5 Z"/></g>
<g><path style="opacity:1" fill="#fefefe" d="M 32.5,144.5 C 60.6837,209.85 108.35,254.35 175.5,278C 260.615,302.546 337.282,286.879 405.5,231C 429.666,209.179 448.833,183.679 463,154.5C 464.798,150.578 466.298,146.578 467.5,142.5C 468.499,96.3363 468.832,50.003 468.5,3.5C 477.833,3.5 487.167,3.5 496.5,3.5C 496.5,84.8333 496.5,166.167 496.5,247.5C 487.833,247.5 479.167,247.5 470.5,247.5C 470.5,248.5 470.5,249.5 470.5,250.5C 478.65,251.493 486.983,251.826 495.5,251.5C 495.5,323.5 495.5,395.5 495.5,467.5C 433.833,467.5 372.167,467.5 310.5,467.5C 310.754,462.03 310.087,456.696 308.5,451.5C 295.992,418.398 271.992,403.898 236.5,408C 210.059,414.941 194.059,431.774 188.5,458.5C 187.841,461.455 187.508,464.455 187.5,467.5C 125.833,467.5 64.1667,467.5 2.5,467.5C 2.5,395.5 2.5,323.5 2.5,251.5C 11.8333,251.5 21.1667,251.5 30.5,251.5C 30.5,250.167 30.5,248.833 30.5,247.5C 21.5,247.5 12.5,247.5 3.5,247.5C 2.50069,166.335 2.16736,85.0017 2.5,3.5C 11.5,3.5 20.5,3.5 29.5,3.5C 29.3333,49.1679 29.5,94.8345 30,140.5C 30.6082,142.066 31.4415,143.4 32.5,144.5 Z"/></g>
<g><path style="opacity:1" fill="#fdfdfd" d="M 168.5,3.5 C 168.5,66.5 168.5,129.5 168.5,192.5C 174.833,192.5 181.167,192.5 187.5,192.5C 188.468,194.607 188.802,196.941 188.5,199.5C 195.805,231.471 215.805,248.805 248.5,251.5C 278.579,250.381 298.246,235.714 307.5,207.5C 309.579,202.831 310.579,197.831 310.5,192.5C 316.833,192.5 323.167,192.5 329.5,192.5C 329.5,129.5 329.5,66.5 329.5,3.5C 338.833,3.5 348.167,3.5 357.5,3.5C 357.5,12.5 357.5,21.5 357.5,30.5C 358.5,30.5 359.5,30.5 360.5,30.5C 359.862,21.1045 360.529,12.1045 362.5,3.5C 396.329,4.49833 430.329,4.83166 464.5,4.5C 464.5,50.1667 464.5,95.8333 464.5,141.5C 440.572,199.456 399.905,241.29 342.5,267C 264.078,298.577 189.412,291.577 118.5,246C 80.4057,219.618 52.4057,185.118 34.5,142.5C 33.5054,96.2387 33.172,49.9053 33.5,3.5C 68.5,3.5 103.5,3.5 138.5,3.5C 138.5,12.5 138.5,21.5 138.5,30.5C 139.5,30.5 140.5,30.5 141.5,30.5C 141.5,21.5 141.5,12.5 141.5,3.5C 150.5,3.5 159.5,3.5 168.5,3.5 Z"/></g>
<g><path style="opacity:1" fill="#fdfdfd" d="M 172.5,3.5 C 223.833,3.5 275.167,3.5 326.5,3.5C 326.5,65.1667 326.5,126.833 326.5,188.5C 320.865,189.037 315.532,188.37 310.5,186.5C 310.965,182.208 310.132,178.208 308,174.5C 307.25,175.126 306.416,175.626 305.5,176C 306.38,177.356 306.714,178.856 306.5,180.5C 306.5,183.167 306.5,185.833 306.5,188.5C 268.167,188.5 229.833,188.5 191.5,188.5C 191.284,184.941 191.618,181.441 192.5,178C 191.991,176.831 191.158,175.998 190,175.5C 189.433,178.168 188.933,180.834 188.5,183.5C 187.549,184.919 187.216,186.585 187.5,188.5C 182.5,188.5 177.5,188.5 172.5,188.5C 172.5,126.833 172.5,65.1667 172.5,3.5 Z"/></g>
<g><path style="opacity:1" fill="#585858" d="M 168.5,3.5 C 169.499,65.9978 169.832,128.664 169.5,191.5C 175.69,191.177 181.69,191.51 187.5,192.5C 181.167,192.5 174.833,192.5 168.5,192.5C 168.5,129.5 168.5,66.5 168.5,3.5 Z"/></g>
<g><path style="opacity:1" fill="#646464" d="M 172.5,3.5 C 172.5,65.1667 172.5,126.833 172.5,188.5C 177.5,188.5 182.5,188.5 187.5,188.5C 187.216,186.585 187.549,184.919 188.5,183.5C 188.5,185.5 188.5,187.5 188.5,189.5C 182.833,189.5 177.167,189.5 171.5,189.5C 171.168,127.331 171.501,65.3311 172.5,3.5 Z"/></g>
<g><path style="opacity:1" fill="#ebebeb" d="M 362.5,3.5 C 396.833,3.5 431.167,3.5 465.5,3.5C 465.5,47.8333 465.5,92.1667 465.5,136.5C 465.784,138.415 465.451,140.081 464.5,141.5C 464.5,95.8333 464.5,50.1667 464.5,4.5C 430.329,4.83166 396.329,4.49833 362.5,3.5 Z"/></g>
<g><path style="opacity:1" fill="#525252" d="M 278.5,43.5 C 272.167,44.1667 265.833,44.8333 259.5,45.5C 258.957,45.44 258.624,45.1067 258.5,44.5C 265.134,43.5033 271.8,43.17 278.5,43.5 Z"/></g>
<g><path style="opacity:1" fill="#1d1d1d" d="M 278.5,43.5 C 271.8,43.17 265.134,43.5033 258.5,44.5C 258.624,45.1067 258.957,45.44 259.5,45.5C 264.152,53.1218 263.152,59.9551 256.5,66C 242.446,70.0762 235.612,64.9095 236,50.5C 236.792,48.4127 237.959,46.5793 239.5,45C 233.175,44.5005 226.842,44.3338 220.5,44.5C 220.5,43.1667 220.5,41.8333 220.5,40.5C 239.833,40.5 259.167,40.5 278.5,40.5C 278.5,41.5 278.5,42.5 278.5,43.5 Z"/></g>
<g><path style="opacity:1" fill="#f4f4f4" d="M 244.5,44.5 C 258.315,43.7971 262.315,49.6305 256.5,62C 244.15,66.9888 238.65,62.8221 240,49.5C 241.707,47.9625 243.207,46.2959 244.5,44.5 Z"/></g>
<g><path style="opacity:1" fill="#0e0e0e" d="M 241.5,129.5 C 246.5,129.5 251.5,129.5 256.5,129.5C 256.5,130.5 256.5,131.5 256.5,132.5C 251.5,132.5 246.5,132.5 241.5,132.5C 241.5,131.5 241.5,130.5 241.5,129.5 Z"/></g>
<g><path style="opacity:1" fill="#161616" d="M 269.5,133.5 C 274.032,134.763 278.365,136.597 282.5,139C 283.821,140.545 283.488,141.711 281.5,142.5C 278.112,140.139 274.446,138.306 270.5,137C 269.663,135.989 269.33,134.822 269.5,133.5 Z"/></g>
<g><path style="opacity:1" fill="#141414" d="M 226.5,133.5 C 228.332,134.14 228.665,135.14 227.5,136.5C 224.006,138.079 220.673,139.913 217.5,142C 216.365,142.749 215.365,142.583 214.5,141.5C 217.875,137.818 221.875,135.152 226.5,133.5 Z"/></g>
<g><path style="opacity:1" fill="#646464" d="M 3.5,247.5 C 12.5,247.5 21.5,247.5 30.5,247.5C 30.5,248.833 30.5,250.167 30.5,251.5C 21.1667,251.5 11.8333,251.5 2.5,251.5C 11.3423,250.833 20.3423,250.167 29.5,249.5C 20.6759,248.833 12.0093,248.167 3.5,247.5 Z"/></g>
<g><path style="opacity:1" fill="#cacaca" d="M 470.5,250.5 C 479.167,250.5 487.833,250.5 496.5,250.5C 496.833,323.002 496.499,395.335 495.5,467.5C 495.5,395.5 495.5,323.5 495.5,251.5C 486.983,251.826 478.65,251.493 470.5,250.5 Z"/></g>
<g><path style="opacity:1" fill="#151515" d="M 465.5,136.5 C 466.458,138.302 467.125,140.302 467.5,142.5C 466.298,146.578 464.798,150.578 463,154.5C 448.833,183.679 429.666,209.179 405.5,231C 337.282,286.879 260.615,302.546 175.5,278C 108.35,254.35 60.6837,209.85 32.5,144.5C 32.5,143.167 33.1667,142.5 34.5,142.5C 52.4057,185.118 80.4057,219.618 118.5,246C 189.412,291.577 264.078,298.577 342.5,267C 399.905,241.29 440.572,199.456 464.5,141.5C 465.451,140.081 465.784,138.415 465.5,136.5 Z"/></g>
<g><path style="opacity:1" fill="#151515" d="M 191.5,192.5 C 193.474,216.298 205.14,233.465 226.5,244C 253.106,252.909 275.939,247.076 295,226.5C 299.939,219.288 303.772,211.622 306.5,203.5C 306.833,204.833 307.167,206.167 307.5,207.5C 298.246,235.714 278.579,250.381 248.5,251.5C 215.805,248.805 195.805,231.471 188.5,199.5C 189.651,197.221 190.651,194.888 191.5,192.5 Z"/></g>
<g><path style="opacity:1" fill="#fcfcfc" d="M 191.5,192.5 C 230.167,192.5 268.833,192.5 307.5,192.5C 307.276,196.179 306.942,199.846 306.5,203.5C 303.772,211.622 299.939,219.288 295,226.5C 275.939,247.076 253.106,252.909 226.5,244C 205.14,233.465 193.474,216.298 191.5,192.5 Z"/></g>
<g><path style="opacity:1" fill="#979797" d="M 310.5,186.5 C 315.532,188.37 320.865,189.037 326.5,188.5C 321.36,189.488 316.026,189.821 310.5,189.5C 310.5,188.5 310.5,187.5 310.5,186.5 Z"/></g>
<g><path style="opacity:1" fill="#9c9c9c" d="M 306.5,180.5 C 307.477,183.287 307.81,186.287 307.5,189.5C 268.663,189.832 229.996,189.499 191.5,188.5C 229.833,188.5 268.167,188.5 306.5,188.5C 306.5,185.833 306.5,183.167 306.5,180.5 Z"/></g>
<g><path style="opacity:1" fill="#141414" d="M 202.5,150.5 C 203.995,150.415 204.995,151.081 205.5,152.5C 202.833,156.167 200.167,159.833 197.5,163.5C 196.5,163.167 195.833,162.5 195.5,161.5C 197.465,157.548 199.798,153.881 202.5,150.5 Z"/></g>
<g><path style="opacity:1" fill="#141414" d="M 293.5,149.5 C 296.298,150.706 298.465,152.706 300,155.5C 300.792,157.587 301.959,159.421 303.5,161C 302.725,162.23 301.725,162.563 300.5,162C 298,158.833 295.5,155.667 293,152.5C 292.53,151.423 292.697,150.423 293.5,149.5 Z"/></g>
<g><path style="opacity:1" fill="#161616" d="M 308.5,451.5 C 307.599,452.29 306.932,453.29 306.5,454.5C 295.103,422.623 272.437,408.123 238.5,411C 209.259,418.696 193.593,437.529 191.5,467.5C 190.626,464.465 189.626,461.465 188.5,458.5C 194.059,431.774 210.059,414.941 236.5,408C 271.992,403.898 295.992,418.398 308.5,451.5 Z"/></g>
<g><path style="opacity:1" fill="#fbfbfb" d="M 306.5,454.5 C 307.2,458.798 307.533,463.131 307.5,467.5C 295.5,467.5 283.5,467.5 271.5,467.5C 268.617,451.372 258.951,444.538 242.5,447C 233.045,450.615 228.045,457.449 227.5,467.5C 215.5,467.5 203.5,467.5 191.5,467.5C 193.593,437.529 209.259,418.696 238.5,411C 272.437,408.123 295.103,422.623 306.5,454.5 Z"/></g>
<g><path style="opacity:1" fill="#f8f8f8" d="M 244.5,449.5 C 258.139,448.159 265.806,454.159 267.5,467.5C 255.167,467.5 242.833,467.5 230.5,467.5C 231.792,458.875 236.459,452.875 244.5,449.5 Z"/></g>
</svg>
